# xmcd
#
# Track frame offsets:
# 150
# 17684
# 34724
# 49160
# 64286
# 84012
# 101002
# 117354
# 135834
# 150209
# 169622
# 218229
#
# Disc length: 3055 seconds
#
#
# Revision: 1
# Processed by: cddbd v1.5.2PL0 Copyright (c) Steve Scherf et al.
# Submitted via: FreeRIP 2.951 
#
DISCID=8c0bed0c
DTITLE=Rascal Flatts - Feels Like Today
DYEAR=2004
DGENRE=Country
TTITLE0=Where You Are
TTITLE1=Bless The Broken Road
TTITLE2=Then I Did
TTITLE3=Feels Like Today
TTITLE4=Fast Cars And Freedom
TTITLE5=When The Sand Runs Out
TTITLE6=Here's To You
TTITLE7=The Day Before You
TTITLE8=Break Away
TTITLE9=Holes
TTITLE10=Oklahoma-Texas Line
TTITLE11=Data
EXTD=
EXTT0=
EXTT1=
EXTT2=
EXTT3=
EXTT4=
EXTT5=
EXTT6=
EXTT7=
EXTT8=
EXTT9=
EXTT10=
EXTT11=
PLAYORDER=
